<?xml version="1.0" standalone="no"?>
<!DOCTYPE svg PUBLIC "-//W3C//DTD SVG 20010904//EN" "http://www.w3.org/TR/2001/REC-SVG-20010904/DTD/svg10.dtd">
<!-- Created using Krita: https://krita.org -->
<svg xmlns="http://www.w3.org/2000/svg" 
    xmlns:xlink="http://www.w3.org/1999/xlink"
    xmlns:krita="http://krita.org/namespaces/svg/krita"
    xmlns:sodipodi="http://sodipodi.sourceforge.net/DTD/sodipodi-0.dtd"
    width="104.4pt"
    height="113.04pt"
    viewBox="0 0 104.4 113.04">
<defs>
  <linearGradient id="gradient0" gradientUnits="objectBoundingBox" x1="0.459338726594819" y1="0.789392503329928" x2="0.49649395667398" y2="-0.448147087936029" spreadMethod="pad">
   <stop stop-color="#297f00" offset="0" stop-opacity="1"/>
   <stop stop-color="#000000" offset="1" stop-opacity="0"/>
  </linearGradient>
  <linearGradient id="gradient1" gradientUnits="objectBoundingBox" x1="0.459338726594819" y1="0.789392503329928" x2="0.49649395667398" y2="-0.448147087936029" spreadMethod="pad">
   <stop stop-color="#297f00" offset="0" stop-opacity="1"/>
   <stop stop-color="#000000" offset="1" stop-opacity="0"/>
  </linearGradient>
  <linearGradient id="gradient2" gradientUnits="objectBoundingBox" x1="0.459338726594819" y1="0.789392503329928" x2="0.49649395667398" y2="-0.448147087936029" spreadMethod="pad">
   <stop stop-color="#297f00" offset="0" stop-opacity="1"/>
   <stop stop-color="#000000" offset="1" stop-opacity="0"/>
  </linearGradient>
  <linearGradient id="gradient3" gradientUnits="objectBoundingBox" x1="0.459338726594819" y1="0.789392503329928" x2="0.49649395667398" y2="-0.448147087936029" spreadMethod="pad">
   <stop stop-color="#297f00" offset="0" stop-opacity="1"/>
   <stop stop-color="#000000" offset="1" stop-opacity="0"/>
  </linearGradient>
 </defs>
<g id="group0" transform="matrix(0.99999995025085 0 0 0.99999995025085 30.1750670214402 3.66511607306479)" fill="none">
  <rect id="shape1" transform="matrix(1.05615795311714 0 0 0.999999935278249 33.6714029271166 1.66511426980901)" fill="url(#gradient0)" fill-rule="evenodd" stroke-opacity="0" stroke="#000000" stroke-width="0" stroke-linecap="square" stroke-linejoin="bevel" width="2.23200448215737" height="29.151139496382"/>
  <rect id="shape11" transform="matrix(1.05615799348781 0 0 0.999999973502328 27.7481691010516 -4.44089209850063e-16)" fill="url(#gradient1)" fill-rule="evenodd" stroke-opacity="0" stroke="#000000" stroke-width="0" stroke-linecap="square" stroke-linejoin="bevel" width="2.23200448215737" height="29.151139496382"/>
  <rect id="shape12" transform="matrix(1.05615799348781 0 0 0.999999973502328 10.4356681607755 0.250000013577989)" fill="url(#gradient2)" fill-rule="evenodd" stroke-opacity="0" stroke="#000000" stroke-width="0" stroke-linecap="square" stroke-linejoin="bevel" width="2.23200448215737" height="29.151139496382"/>
  <path id="shape0" transform="matrix(1.05615802147354 0 0 1 0 23.2578728977843)" fill="#297f00" fill-rule="evenodd" stroke-opacity="0" stroke="#000000" stroke-width="0" stroke-linecap="square" stroke-linejoin="bevel" d="M5.35789 43.7522L0 9.82571L5.26551 0L33.6254 0.463477L38.8909 9.26954L34.7339 43.4741Z" sodipodi:nodetypes="ccccccc"/>
  <rect id="shape13" transform="matrix(1.05615802147354 0 0 1 2.19993309015766 0.0223853383944701)" fill="url(#gradient3)" fill-rule="evenodd" stroke-opacity="0" stroke="#000000" stroke-width="0" stroke-linecap="square" stroke-linejoin="bevel" width="2.23200448215737" height="29.151139496382"/>
  <path id="shape2" transform="matrix(1.05615802147354 0 0 1 3.64073040525263 25.555969919398)" fill="#ffffff" fill-rule="evenodd" stroke-opacity="0" stroke="#000000" stroke-width="0" stroke-linecap="square" stroke-linejoin="bevel" d="M5.3033 0L19.0035 0L23.8649 8.48528L20.4177 38.9793L5.03814 38.9793L0 9.104Z" sodipodi:nodetypes="ccccccc"/>
  <path id="shape3" transform="matrix(1.05615802147354 0 0 1 8.68174173560258 27.3237368591009)" fill="#297f00" fill-rule="evenodd" stroke-opacity="0" stroke="#000000" stroke-width="0" stroke-linecap="square" stroke-linejoin="bevel" d="M0 1.23744L1.41421 0L5.12652 0.0883883L14.4073 11.5111L14.1421 17.4125Z" sodipodi:nodetypes="cccccc"/>
  <path id="shape4" transform="matrix(1.05615802147354 0 0 1 5.22771545369618 36.4277365985706)" fill="#297f00" fill-rule="evenodd" stroke-opacity="0" stroke="#000000" stroke-width="0" stroke-linecap="square" stroke-linejoin="bevel" d="M0 0L14.7609 17.059L15.1144 23.9532L1.41421 8.3085Z" sodipodi:nodetypes="ccccc"/>
  <path id="shape5" transform="matrix(1.05615802147354 0 0 1 8.96179792062199 58.0828816099306)" fill="#297f00" fill-rule="evenodd" stroke-opacity="0" stroke="#000000" stroke-width="0" stroke-linecap="square" stroke-linejoin="bevel" d="M4.15425 4.50781L0 0L0.795495 4.15425Z" sodipodi:nodetypes="cccc"/>
  <path id="shape6" transform="matrix(1.05615802147354 0 0 1 28.845787057002 30.0637756156403)" fill="#ffffff" fill-rule="evenodd" stroke-opacity="0" stroke="#000000" stroke-width="0" stroke-linecap="square" stroke-linejoin="bevel" d="M0.0883883 16.3518L0.707107 14.2305C2.51042 9.21488 2.22153 6.45317 0.907446 2.49821L0 0L2.49753 1.43755C4.88536 5.72399 5.09729 8.08797 3.44715 13.1699L2.12132 14.9376Z" sodipodi:nodetypes="cccccccc"/>
  <path id="shape7" transform="matrix(1.05615802147354 0 0 1 32.8599257089473 29.7102222276997)" fill="#ffffff" fill-rule="evenodd" stroke-opacity="0" stroke="#000000" stroke-width="0" stroke-linecap="square" stroke-linejoin="bevel" d="M0.53033 16.3518C1.52762 15.7438 2.20526 15.2724 2.56326 14.9376C2.89052 14.6316 3.36193 14.0423 3.97748 13.1699C5.3259 9.11139 5.56544 7.9476 4.50781 4.24264C4.0412 3.0924 3.56979 2.26745 3.09359 1.76777C2.16299 0.791304 1.1318 0.202047 0 0C1.00782 1.16895 1.69625 2.35524 2.06529 3.55887C2.63617 5.42079 2.80016 10.3173 2.00253 12.685C1.7503 13.4337 1.25956 14.656 0.53033 16.3518Z" sodipodi:nodetypes="csccscssc"/>
  <path id="shape8" transform="matrix(1.05615802147354 0 0 1 5.00181107711007 65.8610561446232)" fill="#297f00" fill-rule="evenodd" stroke-opacity="0" stroke="#000000" stroke-width="0" stroke-linecap="square" stroke-linejoin="bevel" d="M12.6767 0.176777L12.5883 7.51301C4.8329 14.5841 -5.18209 20.8597 3.13071 31.9082C7.58084 37.241 10.692 36.4749 14.9747 37.8302C17.4745 37.3918 23.0572 37.3553 26.0779 33.6993C28.8594 30.333 29.1743 23.3482 29.5092 22.474C29.8796 21.5071 30.4794 20.7116 31.3085 20.0875C29.5057 19.7906 28.0601 20.2882 27.0822 20.7946C23.594 22.601 24.2075 26.2227 21.8098 27.9099C19.4671 29.5233 15.218 29.1181 13.4721 27.4888C10.318 24.8519 10.7595 20.6019 12.2275 18.3197C13.8209 15.8424 16.546 15.2478 19.2992 13.5468C20.7814 11.7836 21.3729 9.56614 21.0735 6.89429L20.8968 0Z" sodipodi:nodetypes="cccccscsccscccc"/>
  <path id="shape9" transform="matrix(1.05615802147354 0 0 1 7.13258308683705 81.6825702549637)" fill="#ffffff" fill-rule="evenodd" stroke-opacity="0" stroke="#000000" stroke-width="0" stroke-linecap="square" stroke-linejoin="bevel" d="M4.82554 0C3.67299 0.683536 2.73018 1.36118 1.99711 2.03293C0.367722 4.69548 0.0367722 7.03082 0 8.90637C0.231228 10.6194 1.13785 13.4036 3.22201 15.8007C3.8413 16.2468 4.62239 16.5561 5.56529 16.7287C2.95164 11.3712 2.23164 5.82625 4.82554 0Z" sodipodi:nodetypes="cccccc"/>
 </g>
</svg>
